<svg version="1.1" xmlns="http://www.w3.org/2000/svg" xmlns:xlink="http://www.w3.org/1999/xlink" width="55.93333" height="49.13333" viewBox="0,0,55.93333,49.13333"><g transform="translate(-212.5,-154.03333)"><g data-paper-data="{&quot;isPaintingLayer&quot;:true}" fill="#ffcf00" fill-rule="nonzero" stroke="none" stroke-width="0" stroke-linecap="butt" stroke-linejoin="miter" stroke-miterlimit="10" stroke-dasharray="" stroke-dashoffset="0" style="mix-blend-mode: normal"><path d="M223.16667,187.33333c0,-8.74451 7.08882,-15.83333 15.83333,-15.83333c8.74451,0 15.83333,7.08882 15.83333,15.83333c0,8.74451 -7.08882,15.83333 -15.83333,15.83333c-8.74451,0 -15.83333,-7.08882 -15.83333,-15.83333z"/><path d="M212.5,169.6c0,-4.0685 3.29817,-7.36667 7.36667,-7.36667c4.0685,0 7.36667,3.29817 7.36667,7.36667c0,4.0685 -3.29817,7.36667 -7.36667,7.36667c-4.0685,0 -7.36667,-3.29817 -7.36667,-7.36667z"/><path d="M233.5,161.4c0,-4.0685 3.29817,-7.36667 7.36667,-7.36667c4.0685,0 7.36667,3.29817 7.36667,7.36667c0,4.0685 -3.29817,7.36667 -7.36667,7.36667c-4.0685,0 -7.36667,-3.29817 -7.36667,-7.36667z"/><path d="M253.7,169.6c0,-4.0685 3.29817,-7.36667 7.36667,-7.36667c4.0685,0 7.36667,3.29817 7.36667,7.36667c0,4.0685 -3.29817,7.36667 -7.36667,7.36667c-4.0685,0 -7.36667,-3.29817 -7.36667,-7.36667z"/></g></g></svg>